<svg version="1.1" viewBox="0.0 0.0 113.38582677165354 75.59055118110236" fill="none" stroke="none" stroke-linecap="square" stroke-miterlimit="10" xmlns:xlink="http://www.w3.org/1999/xlink" xmlns="http://www.w3.org/2000/svg"><clipPath id="g3b38329cdce_0_16.0"><path d="m0 0l113.385826 0l0 75.59055l-113.385826 0l0 -75.59055z" clip-rule="nonzero"/></clipPath><g clip-path="url(#g3b38329cdce_0_16.0)"><path fill="#ffffff" d="m0 0l113.385826 0l0 75.59055l-113.385826 0z" fill-rule="evenodd"/><path fill="#000000" fill-opacity="0.0" d="m46.766693 -5.94944l11.905514 0l0 130.89764l-11.905514 0z" fill-rule="evenodd"/><path fill="#595959" d="m66.30176 20.047281l4.25 -5.031251q1.1875 0.90625 2.109375 1.656251q0.9375 0.75 1.765625 1.53125q0.828125 0.765625 1.671875 1.640625q0.859375 0.875 1.890625 2.03125l-2.015625 3.71875l-39.046883 0l-1.765625 -5.546875l31.140633 0zm4.3125 30.453123l4.703125 -5.203125q1.390625 1.140625 2.421875 2.03125q1.03125 0.875 1.875 1.671875q0.84375 0.796875 1.671875 1.65625q0.84375 0.84375 1.84375 1.90625l-2.171875 3.828125l-48.781258 0l-1.8125 -5.890625l40.250008 0z" fill-rule="nonzero"/></g></svg>