<svg version="1.1" viewBox="0.0 0.0 113.38582677165354 75.59055118110236" fill="none" stroke="none" stroke-linecap="square" stroke-miterlimit="10" xmlns:xlink="http://www.w3.org/1999/xlink" xmlns="http://www.w3.org/2000/svg"><clipPath id="g3b38329cdce_0_21.0"><path d="m0 0l113.385826 0l0 75.59055l-113.385826 0l0 -75.59055z" clip-rule="nonzero"/></clipPath><g clip-path="url(#g3b38329cdce_0_21.0)"><path fill="#ffffff" d="m0 0l113.385826 0l0 75.59055l-113.385826 0z" fill-rule="evenodd"/><path fill="#000000" fill-opacity="0.0" d="m46.766693 -5.94944l11.905514 0l0 130.89764l-11.905514 0z" fill-rule="evenodd"/><path fill="#595959" d="m68.55176 17.812906l4.40625 -4.921876q1.3125 1.0625 2.234375 1.859375q0.921875 0.78125 1.65625 1.484376q0.75 0.6875 1.53125 1.5q0.78125 0.8125 1.796875 1.921875l-2.078125 3.671875l-43.375008 0l-1.6875 -5.515625l35.515633 0zm-2.796875 16.499998l4.046875 -4.531248q1.3125 1.0625 2.234375 1.859375q0.921875 0.7968731 1.640625 1.4687481q0.734375 0.671875 1.421875 1.390625q0.6875 0.703125 1.53125 1.625l-2.078125 3.546875l-36.109383 0l-1.625 -5.359375l28.937508 0zm5.75 17.859375l4.59375 -5.28125q1.734375 1.375 2.953125 2.484375q1.234375 1.09375 2.3125 2.21875q1.078125 1.109375 2.296875 2.5625l-2.0 3.796875l-50.265633 0l-1.625 -5.78125l41.734383 0z" fill-rule="nonzero"/></g></svg>