<svg version="1.1" viewBox="0.0 0.0 113.38582677165354 75.59055118110236" fill="none" stroke="none" stroke-linecap="square" stroke-miterlimit="10" xmlns:xlink="http://www.w3.org/1999/xlink" xmlns="http://www.w3.org/2000/svg"><clipPath id="g3b38329cdce_0_26.0"><path d="m0 0l113.385826 0l0 75.59055l-113.385826 0l0 -75.59055z" clip-rule="nonzero"/></clipPath><g clip-path="url(#g3b38329cdce_0_26.0)"><path fill="#ffffff" d="m0 0l113.385826 0l0 75.59055l-113.385826 0z" fill-rule="evenodd"/><path fill="#000000" fill-opacity="0.0" d="m46.766693 -5.94944l11.905514 0l0 130.89764l-11.905514 0z" fill-rule="evenodd"/><path fill="#595959" d="m73.19238 57.031654l-33.546883 0l0 4.703125l-7.578125 0l0 -47.578125q0.859375 0.171875 1.75 0.375q0.90625 0.1875 2.078125 0.46875q1.171875 0.265625 2.875 0.75l1.484375 0.42187595l32.343758 0l3.546875 -3.812501q2.1875 1.734375 3.625 2.9375q1.4375 1.203126 2.265625 2.015626q0.828125 0.8125 1.171875 1.375q0.34375 0.5625 0.34375 0.96875q0 0.515625 -0.640625 1.0625l-2.125 1.84375l0 38.6875l-7.59375 0l0 -4.21875zm0 -5.28125l0 -8.515625l-8.359375 0q-2.1562576 0 -3.4531326 -0.515625q-1.28125 -0.53125 -1.84375 -1.6875q-0.546875 -1.15625 -0.546875 -3.0625l0 -17.046873l-5.09375 0l0 1.8125q0 4.59375 -0.5625 8.28125q-0.546875 3.687498 -1.75 6.703123q-1.203125 3.0 -3.15625 5.484375q-1.9375 2.484375 -4.671875 4.671875l-3.4375 -3.28125q1.703125 -1.984375 2.90625 -4.171875q1.203125 -2.203125 1.953125 -4.796875q0.75 -2.59375 1.09375 -5.765623q0.359375 -3.1875 0.359375 -7.125l0 -1.8125l-6.984375 0l0 30.828123l33.546883 0zm-7.15625 -30.828123l0 14.249998q0 0.90625 0.390625 1.28125q0.390625 0.375 1.359375 0.375l5.40625 0l0 -15.906248l-7.15625 0z" fill-rule="nonzero"/></g></svg>