<svg version="1.1" viewBox="0.0 0.0 113.38582677165354 75.59055118110236" fill="none" stroke="none" stroke-linecap="square" stroke-miterlimit="10" xmlns:xlink="http://www.w3.org/1999/xlink" xmlns="http://www.w3.org/2000/svg"><clipPath id="g3b38329cdce_0_31.0"><path d="m0 0l113.385826 0l0 75.59055l-113.385826 0l0 -75.59055z" clip-rule="nonzero"/></clipPath><g clip-path="url(#g3b38329cdce_0_31.0)"><path fill="#ffffff" d="m0 0l113.385826 0l0 75.59055l-113.385826 0z" fill-rule="evenodd"/><path fill="#000000" fill-opacity="0.0" d="m46.766693 -5.94944l11.905514 0l0 130.89764l-11.905514 0z" fill-rule="evenodd"/><path fill="#595959" d="m72.53613 54.85978l2.578125 0l3.546875 -5.453125q1.015625 1.09375 1.6875 1.890625q0.6875 0.796875 1.265625 1.53125q0.578125 0.71875 1.21875 1.5625q0.640625 0.828125 1.5 2.0625l-1.8125 3.609375l-51.656258 0l-1.484375 -5.203125l14.203125 0q0.3125 -1.0625 0.6875 -2.640625q0.375 -1.578125 0.796875 -3.421875q0.4375 -1.859375 0.859375 -3.765625q0.421875 -1.921875 0.765625 -3.671875q0.359375 -1.765625 0.609375 -3.15625l-11.09375 0l-1.265625 -4.921875l13.28125 0q0.078125 -0.390625 0.109375 -0.578125q0.03125 -0.203125 0.109375 -0.7343731q0.53125 -2.71875 0.859375 -5.09375q0.34375 -2.375 0.6875 -5.109375l-16.71875 0l-1.265625 -4.984375l37.687508 0l4.15625 -5.093751l1.203125 1.046875q1.296875 1.078125 2.234375 1.96875q0.9375 0.875 1.765625 1.765626q0.84375 0.875 1.796875 1.96875l-1.828125 3.328125l-20.843758 0q-0.34375 2.53125 -0.8125 5.40625q-0.453125 2.859375 -1.0 6.109373l8.046883 0l3.265625 -3.828123q2.1875 1.78125 3.609375 3.031248q1.421875 1.234375 2.234375 2.046875q0.8125 0.8125 1.140625 1.375q0.34375 0.5625 0.34375 0.96875q0 0.59375 -0.625 1.046875l-1.84375 1.359375l0 15.578125zm-7.828125 0l0 -16.65625l-9.218758 0q-0.53125 2.953125 -1.078125 5.65625q-0.546875 2.6875 -1.15625 5.359375q-0.59375 2.671875 -1.3125 5.640625l12.765633 0z" fill-rule="nonzero"/></g></svg>