<svg version="1.1" viewBox="0.0 0.0 113.38582677165354 75.59055118110236" fill="none" stroke="none" stroke-linecap="square" stroke-miterlimit="10" xmlns:xlink="http://www.w3.org/1999/xlink" xmlns="http://www.w3.org/2000/svg"><clipPath id="g3b38329cdce_0_36.0"><path d="m0 0l113.385826 0l0 75.59055l-113.385826 0l0 -75.59055z" clip-rule="nonzero"/></clipPath><g clip-path="url(#g3b38329cdce_0_36.0)"><path fill="#ffffff" d="m0 0l113.385826 0l0 75.59055l-113.385826 0z" fill-rule="evenodd"/><path fill="#000000" fill-opacity="0.0" d="m46.766693 -5.94944l11.905514 0l0 130.89764l-11.905514 0z" fill-rule="evenodd"/><path fill="#595959" d="m52.333 24.859781l0 -13.859376q4.15625 0.1875 6.578125 0.453125q2.421875 0.265625 3.453125 0.65625q1.03125 0.390625 1.03125 1.015625q0 0.4375 -0.671875 1.0625q-0.65625 0.609375 -2.140625 1.5l0 9.171876l11.796883 0l4.25 -5.28125q1.59375 1.34375 2.765625 2.4375q1.171875 1.078125 2.1875 2.15625q1.015625 1.078125 2.140625 2.390625l-1.78125 3.5l-50.546883 0l-1.484375 -5.203125l22.421875 0zm-18.484375 37.734375l-3.265625 -3.6875q4.578125 -4.578125 8.03125 -10.65625q3.453125 -6.078125 6.109375 -14.28125q3.609375 1.578125 5.84375 2.75q2.234375 1.171875 3.25 2.046875q1.03125 0.859375 1.03125 1.546875q0 0.53125 -0.78125 0.9375q-0.78125 0.40625 -2.515625 0.71875q-2.9375 6.265625 -7.4375 11.53125q-4.5 5.265625 -10.265625 9.09375zm25.8125 -25.71875l3.734375 -2.90625q3.1718826 2.359375 5.9843826 4.828125q2.828125 2.46875 5.140625 4.921875q2.328125 2.4375 4.0 4.6875q1.6875 2.234375 2.609375 4.109375q0.921875 1.859375 0.921875 3.203125q0 1.234375 -0.625 2.296875q-0.609375 1.0625 -2.0 2.09375q-1.0625 0.8125 -2.09375 1.265625q-1.015625 0.46875 -1.75 0.46875q-1.0625 0 -1.84375 -1.03125q-0.109375 -0.171875 -0.203125 -0.359375q-0.09375 -0.171875 -0.3125 -0.65625q-0.203125 -0.46875 -0.6875 -1.5q-1.859375 -4.3125 -3.859375 -8.0q-2.0 -3.6875 -4.21875 -7.0q-2.2031326 -3.3125 -4.7968826 -6.421875z" fill-rule="nonzero"/></g></svg>