<svg version="1.1" viewBox="0.0 0.0 113.38582677165354 75.59055118110236" fill="none" stroke="none" stroke-linecap="square" stroke-miterlimit="10" xmlns:xlink="http://www.w3.org/1999/xlink" xmlns="http://www.w3.org/2000/svg"><clipPath id="g3b38329cdce_0_41.0"><path d="m0 0l113.385826 0l0 75.59055l-113.385826 0l0 -75.59055z" clip-rule="nonzero"/></clipPath><g clip-path="url(#g3b38329cdce_0_41.0)"><path fill="#ffffff" d="m0 0l113.385826 0l0 75.59055l-113.385826 0z" fill-rule="evenodd"/><path fill="#000000" fill-opacity="0.0" d="m46.766693 -5.94944l11.905514 0l0 130.89764l-11.905514 0z" fill-rule="evenodd"/><path fill="#595959" d="m45.286125 36.23478l-13.609375 1.96875l-2.296875 -5.15625l15.90625 -2.343748l0 -19.0625q3.96875 0.1875 6.390625 0.484375q2.421875 0.296875 3.515625 0.75q1.109375 0.4375 1.109375 1.109375q0 0.453125 -0.640625 1.0625q-0.640625 0.59375 -2.078125 1.453126l0 13.0l18.281258 -2.6875l3.5625 -5.953125q1.390625 0.984375 2.46875 1.765625q1.078125 0.78125 1.96875 1.484375q0.890625 0.703125 1.78125 1.421875q0.90625 0.703125 1.90625 1.5625l-1.453125 3.828125l-28.515633 4.109373l0 16.0q0 0.890625 0.1875 1.390625q0.203125 0.5 0.578125 0.78125q0.53125 0.34375 2.375 0.484375q1.84375 0.140625 5.53125 0.140625q3.1875076 0 5.0312576 -0.1875q1.84375 -0.1875 2.796875 -0.640625q0.953125 -0.46875 1.421875 -1.296875q0.625 -1.015625 1.078125 -2.40625q0.46875 -1.40625 0.859375 -3.421875q0.40625 -2.03125 0.78125 -4.890625l3.765625 1.578125q-0.078125 1.390625 -0.125 2.234375q-0.03125 0.828125 -0.03125 1.484375q0 2.421875 0.359375 3.859375q0.359375 1.4375 1.1875 2.09375q0.84375 0.640625 2.28125 0.71875q-0.03125 2.125 -0.40625 3.53125q-0.359375 1.390625 -1.171875 2.234375q-0.796875 0.859375 -2.140625 1.34375q-1.4375 0.546875 -5.3125 0.8125q-3.859375 0.265625 -10.203133 0.265625q-3.359375 0 -5.78125 -0.078125q-2.40625 -0.0625 -4.09375 -0.21875q-1.671875 -0.140625 -2.765625 -0.40625q-1.09375 -0.265625 -1.78125 -0.65625q-0.984375 -0.5625 -1.59375 -1.46875q-0.59375 -0.90625 -0.859375 -2.296875q-0.265625 -1.40625 -0.265625 -3.5l0 -16.28125z" fill-rule="nonzero"/></g></svg>