<svg version="1.1" viewBox="0.0 0.0 113.38582677165354 75.59055118110236" fill="none" stroke="none" stroke-linecap="square" stroke-miterlimit="10" xmlns:xlink="http://www.w3.org/1999/xlink" xmlns="http://www.w3.org/2000/svg"><clipPath id="g3b38329cdce_0_46.0"><path d="m0 0l113.385826 0l0 75.59055l-113.385826 0l0 -75.59055z" clip-rule="nonzero"/></clipPath><g clip-path="url(#g3b38329cdce_0_46.0)"><path fill="#ffffff" d="m0 0l113.385826 0l0 75.59055l-113.385826 0z" fill-rule="evenodd"/><path fill="#000000" fill-opacity="0.0" d="m46.766693 -5.94944l11.905514 0l0 130.89764l-11.905514 0z" fill-rule="evenodd"/><path fill="#595959" d="m58.3955 15.57853l3.5 -4.15625q2.1718826 1.671875 3.5781326 2.828125q1.421875 1.15625 2.21875 1.953126q0.796875 0.78125 1.125 1.296875q0.34375 0.515625 0.34375 0.9375q0 0.671875 -1.0625 1.28125l-2.65625 1.421875q2.125 10.125 6.8125 18.234373q4.703125 8.09375 11.921875 14.0q-2.21875 1.953125 -3.921875 3.90625q-1.703125 1.9375 -3.359375 4.390625q-3.59375 -4.15625 -6.34375 -8.546875q-2.734375 -4.390625 -4.734375 -9.3125q-2.0000076 -4.921875 -3.4062576 -10.6875q-1.390625 -5.781248 -2.28125 -12.734373l-12.296875 0l-1.265625 -4.812501l11.828125 0zm-25.078125 46.203125l-3.65625 -3.375q5.359375 -6.3125 8.546875 -14.953125q3.1875 -8.640625 4.390625 -20.078123q4.09375 1.03125 6.546875 1.859375q2.453125 0.828125 3.578125 1.515625q1.125 0.6875 1.125 1.328125q0 0.5 -0.75 0.984375q-0.734375 0.46875 -2.46875 1.046875q-3.9375 20.296873 -17.3125 31.671873z" fill-rule="nonzero"/></g></svg>