<svg version="1.1" viewBox="0.0 0.0 113.38582677165354 75.59055118110236" fill="none" stroke="none" stroke-linecap="square" stroke-miterlimit="10" xmlns:xlink="http://www.w3.org/1999/xlink" xmlns="http://www.w3.org/2000/svg"><clipPath id="g3b38329cdce_0_51.0"><path d="m0 0l113.385826 0l0 75.59055l-113.385826 0l0 -75.59055z" clip-rule="nonzero"/></clipPath><g clip-path="url(#g3b38329cdce_0_51.0)"><path fill="#ffffff" d="m0 0l113.385826 0l0 75.59055l-113.385826 0z" fill-rule="evenodd"/><path fill="#000000" fill-opacity="0.0" d="m46.766693 -5.94944l11.905514 0l0 130.89764l-11.905514 0z" fill-rule="evenodd"/><path fill="#595959" d="m62.583 30.594156l-6.984375 0q-0.5 6.406248 -2.03125 11.499998q-1.515625 5.078125 -4.21875 9.0625q-2.6875 3.984375 -6.640625 6.984375q-3.9375 3.0 -9.25 5.234375l-2.9375 -4.109375q3.859375 -2.28125 6.734375 -5.046875q2.890625 -2.765625 4.875 -6.15625q1.984375 -3.40625 3.15625 -7.625q1.171875 -4.234375 1.671875 -9.453123l-13.15625 0l-1.421875 -4.984375l14.859375 0q0.03125 -1.28125 0.046875 -1.875q0.015625 -0.609375 0.015625 -0.90625l0 -12.562501q4.078125 0.203125 6.5 0.484375q2.4375 0.28125 3.515625 0.6875q1.078125 0.390625 1.078125 1.015625q0 0.4375 -0.5625 0.984375q-0.546875 0.546875 -1.953125 1.421875l0 9.078126l-0.046875 1.265625l6.359375 0l3.1875076 -4.0625q2.328125 1.875 3.8125 3.171875q1.5 1.28125 2.328125 2.109375q0.828125 0.8125 1.15625 1.34375q0.34375 0.53125 0.34375 0.921875q0 0.453125 -0.484375 0.875l-1.984375 1.84375l0 20.765623q0 0.703125 0.1875 1.078125q0.203125 0.375 0.796875 0.515625q0.59375 0.140625 1.765625 0.140625q1.203125 0 1.75 -0.34375q0.5625 -0.359375 0.921875 -1.328125q0.265625 -0.640625 0.53125 -1.8125q0.265625 -1.1875 0.53125 -2.6875q0.28125 -1.515625 0.53125 -3.140625q0.265625 -1.640625 0.421875 -3.1875l3.71875 1.4375q-0.046875 1.21875 -0.09375 1.984375q-0.046875 0.75 -0.0625 1.234375q-0.015625 0.46875 -0.015625 0.828125l0 0.8125q0 2.234375 0.265625 3.484375q0.265625 1.234375 0.921875 1.75q0.671875 0.5 1.84375 0.5l0.046875 0q-0.03125 2.453125 -0.484375 4.015625q-0.4375 1.5625 -1.609375 2.40625q-1.171875 0.84375 -3.328125 1.15625q-2.15625 0.328125 -5.5625 0.328125q-3.484375 0 -5.671875 -0.28125q-2.1875 -0.28125 -3.34375 -1.03125q-1.1562576 -0.75 -1.5937576 -2.171875q-0.4375 -1.4375 -0.4375 -3.734375l0 -23.921873z" fill-rule="nonzero"/></g></svg>